<?xml version="1.0" encoding="utf-8"?>
<!-- Generator: Adobe Illustrator 19.2.0, SVG Export Plug-In . SVG Version: 6.00 Build 0)  -->
<svg version="1.1" id="Layer_1" xmlns="http://www.w3.org/2000/svg" xmlns:xlink="http://www.w3.org/1999/xlink" x="0px" y="0px"
	 viewBox="0 0 220 24" style="enable-background:new 0 0 220 24;" xml:space="preserve">
<style type="text/css">
	.st0{fill:#E6E6E5;}
	.st1{fill:#454545;}
	.st2{font-family:'Raleway-Regular';}
	.st3{font-size:12px;}
</style>
<g id="XMLID_3542_">
	<g id="XMLID_3544_">
		<g>
			<path class="st0" d="M220,0L220,0c-0.3,0-0.5,0.1-0.5,0.3c-0.3,0-0.5,0.2-0.5,0.5v0.1c0,0.3,0.2,0.5,0.5,0.5
				c0.2,0,0.4-0.2,0.5-0.4h0V0L220,0z M217.9,0L217.9,0c-0.3,0-0.6,0.2-0.6,0.5s0.2,0.5,0.5,0.5h0.1c0.3,0,0.5-0.2,0.5-0.5
				S218.2,0,217.9,0L217.9,0z M215.9,0L215.9,0c-0.3,0-0.6,0.2-0.6,0.5s0.2,0.5,0.5,0.5h0.1c0.3,0,0.5-0.2,0.5-0.5S216.1,0,215.9,0
				L215.9,0z M213.8,0L213.8,0c-0.3,0-0.6,0.2-0.6,0.5s0.2,0.5,0.5,0.5h0.1c0.3,0,0.5-0.2,0.5-0.5S214.1,0,213.8,0L213.8,0z
				 M211.7,0L211.7,0c-0.3,0-0.6,0.2-0.6,0.5s0.2,0.5,0.5,0.5h0.1c0.3,0,0.5-0.2,0.5-0.5S212,0,211.7,0L211.7,0z M209.7,0L209.7,0
				c-0.3,0-0.6,0.2-0.6,0.5s0.2,0.5,0.5,0.5h0.1c0.3,0,0.5-0.2,0.5-0.5S210,0,209.7,0L209.7,0z M207.6,0L207.6,0
				c-0.3,0-0.6,0.2-0.6,0.5s0.2,0.5,0.5,0.5h0.1c0.3,0,0.5-0.2,0.5-0.5S207.9,0,207.6,0L207.6,0z M205.6,0L205.6,0
				c-0.3,0-0.6,0.2-0.6,0.5s0.2,0.5,0.5,0.5h0.1c0.3,0,0.5-0.2,0.5-0.5S205.9,0,205.6,0L205.6,0z M203.5,0L203.5,0
				c-0.3,0-0.6,0.2-0.6,0.5s0.2,0.5,0.5,0.5h0.1c0.3,0,0.5-0.2,0.5-0.5S203.8,0,203.5,0L203.5,0z M201.5,0L201.5,0
				c-0.3,0-0.6,0.2-0.6,0.5s0.2,0.5,0.5,0.5h0.1c0.3,0,0.5-0.2,0.5-0.5S201.7,0,201.5,0L201.5,0z M199.4,0L199.4,0
				c-0.3,0-0.6,0.2-0.6,0.5s0.2,0.5,0.5,0.5h0.1c0.3,0,0.5-0.2,0.5-0.5S199.7,0,199.4,0L199.4,0z M197.4,0L197.4,0
				c-0.3,0-0.6,0.2-0.6,0.5S197,1,197.3,1h0.1c0.3,0,0.5-0.2,0.5-0.5S197.6,0,197.4,0L197.4,0z M195.3,0L195.3,0
				c-0.3,0-0.6,0.2-0.6,0.5S195,1,195.3,1h0.1c0.3,0,0.5-0.2,0.5-0.5S195.6,0,195.3,0L195.3,0z M193.3,0L193.3,0
				c-0.3,0-0.6,0.2-0.6,0.5s0.2,0.5,0.5,0.5h0.1c0.3,0,0.5-0.2,0.5-0.5S193.5,0,193.3,0L193.3,0z M191.2,0L191.2,0
				c-0.3,0-0.6,0.2-0.6,0.5s0.2,0.5,0.5,0.5h0.1c0.3,0,0.5-0.2,0.5-0.5S191.5,0,191.2,0L191.2,0z M189.1,0L189.1,0
				c-0.3,0-0.6,0.2-0.6,0.5s0.2,0.5,0.5,0.5h0.1c0.3,0,0.5-0.2,0.5-0.5S189.4,0,189.1,0L189.1,0z M187.1,0L187.1,0
				c-0.3,0-0.6,0.2-0.6,0.5S186.8,1,187,1h0.1c0.3,0,0.5-0.2,0.5-0.5S187.4,0,187.1,0L187.1,0z M185,0L185,0c-0.3,0-0.6,0.2-0.6,0.5
				S184.7,1,185,1h0.1c0.3,0,0.5-0.2,0.5-0.5S185.3,0,185,0L185,0z M183,0L183,0c-0.3,0-0.6,0.2-0.6,0.5s0.2,0.5,0.5,0.5h0.1
				c0.3,0,0.5-0.2,0.5-0.5S183.3,0,183,0L183,0z M180.9,0L180.9,0c-0.3,0-0.6,0.2-0.6,0.5s0.2,0.5,0.5,0.5h0.1
				c0.3,0,0.5-0.2,0.5-0.5S181.2,0,180.9,0L180.9,0z M178.9,0L178.9,0c-0.3,0-0.6,0.2-0.6,0.5s0.2,0.5,0.5,0.5h0.1
				c0.3,0,0.5-0.2,0.5-0.5S179.1,0,178.9,0L178.9,0z M176.8,0L176.8,0c-0.3,0-0.6,0.2-0.6,0.5s0.2,0.5,0.5,0.5h0.1
				c0.3,0,0.5-0.2,0.5-0.5S177.1,0,176.8,0L176.8,0z M174.8,0L174.8,0c-0.3,0-0.6,0.2-0.6,0.5s0.2,0.5,0.5,0.5h0.1
				c0.3,0,0.5-0.2,0.5-0.5S175,0,174.8,0L174.8,0z M172.7,0L172.7,0c-0.3,0-0.6,0.2-0.6,0.5s0.2,0.5,0.5,0.5h0.1
				c0.3,0,0.5-0.2,0.5-0.5S173,0,172.7,0L172.7,0z M170.6,0L170.6,0c-0.3,0-0.6,0.2-0.6,0.5s0.2,0.5,0.5,0.5h0.1
				c0.3,0,0.5-0.2,0.5-0.5S170.9,0,170.6,0L170.6,0z M168.6,0L168.6,0c-0.3,0-0.6,0.2-0.6,0.5s0.2,0.5,0.5,0.5h0.1
				c0.3,0,0.5-0.2,0.5-0.5S168.9,0,168.6,0L168.6,0z M166.5,0L166.5,0c-0.3,0-0.6,0.2-0.6,0.5s0.2,0.5,0.5,0.5h0.1
				c0.3,0,0.5-0.2,0.5-0.5S166.8,0,166.5,0L166.5,0z M164.5,0L164.5,0c-0.3,0-0.6,0.2-0.6,0.5s0.2,0.5,0.5,0.5h0.1
				c0.3,0,0.5-0.2,0.5-0.5S164.8,0,164.5,0L164.5,0z M162.4,0L162.4,0c-0.3,0-0.6,0.2-0.6,0.5s0.2,0.5,0.5,0.5h0.1
				c0.3,0,0.5-0.2,0.5-0.5S162.7,0,162.4,0L162.4,0z M160.4,0L160.4,0c-0.3,0-0.6,0.2-0.6,0.5S160,1,160.3,1h0.1
				c0.3,0,0.5-0.2,0.5-0.5S160.6,0,160.4,0L160.4,0z M158.3,0L158.3,0c-0.3,0-0.6,0.2-0.6,0.5S158,1,158.3,1h0.1
				c0.3,0,0.5-0.2,0.5-0.5S158.6,0,158.3,0L158.3,0z M156.3,0L156.3,0c-0.3,0-0.6,0.2-0.6,0.5s0.2,0.5,0.5,0.5h0.1
				c0.3,0,0.5-0.2,0.5-0.5S156.5,0,156.3,0L156.3,0z M154.2,0L154.2,0c-0.3,0-0.6,0.2-0.6,0.5s0.2,0.5,0.5,0.5h0.1
				c0.3,0,0.5-0.2,0.5-0.5S154.5,0,154.2,0L154.2,0z M152.2,0L152.2,0c-0.3,0-0.6,0.2-0.6,0.5s0.2,0.5,0.5,0.5h0.1
				c0.3,0,0.5-0.2,0.5-0.5S152.4,0,152.2,0L152.2,0z M150.1,0L150.1,0c-0.3,0-0.6,0.2-0.6,0.5S149.8,1,150,1h0.1
				c0.3,0,0.5-0.2,0.5-0.5S150.4,0,150.1,0L150.1,0z M148,0L148,0c-0.3,0-0.6,0.2-0.6,0.5S147.7,1,148,1h0.1c0.3,0,0.5-0.2,0.5-0.5
				S148.3,0,148,0L148,0z M146,0L146,0c-0.3,0-0.6,0.2-0.6,0.5s0.2,0.5,0.5,0.5h0.1c0.3,0,0.5-0.2,0.5-0.5S146.3,0,146,0L146,0z
				 M143.9,0L143.9,0c-0.3,0-0.6,0.2-0.6,0.5s0.2,0.5,0.5,0.5h0.1c0.3,0,0.5-0.2,0.5-0.5S144.2,0,143.9,0L143.9,0z M141.9,0L141.9,0
				c-0.3,0-0.6,0.2-0.6,0.5s0.2,0.5,0.5,0.5h0.1c0.3,0,0.5-0.2,0.5-0.5S142.2,0,141.9,0L141.9,0z M139.8,0L139.8,0
				c-0.3,0-0.6,0.2-0.6,0.5s0.2,0.5,0.5,0.5h0.1c0.3,0,0.5-0.2,0.5-0.5S140.1,0,139.8,0L139.8,0z M137.8,0L137.8,0
				c-0.3,0-0.6,0.2-0.6,0.5s0.2,0.5,0.5,0.5h0.1c0.3,0,0.5-0.2,0.5-0.5S138,0,137.8,0L137.8,0z M135.7,0L135.7,0
				c-0.3,0-0.6,0.2-0.6,0.5s0.2,0.5,0.5,0.5h0.1c0.3,0,0.5-0.2,0.5-0.5S136,0,135.7,0L135.7,0z M133.7,0L133.7,0
				c-0.3,0-0.6,0.2-0.6,0.5s0.2,0.5,0.5,0.5h0.1c0.3,0,0.5-0.2,0.5-0.5S133.9,0,133.7,0L133.7,0z M131.6,0L131.6,0
				c-0.3,0-0.6,0.2-0.6,0.5s0.2,0.5,0.5,0.5h0.1c0.3,0,0.5-0.2,0.5-0.5S131.9,0,131.6,0L131.6,0z M129.5,0L129.5,0
				c-0.3,0-0.6,0.2-0.6,0.5s0.2,0.5,0.5,0.5h0.1c0.3,0,0.5-0.2,0.5-0.5S129.8,0,129.5,0L129.5,0z M127.5,0L127.5,0
				c-0.3,0-0.6,0.2-0.6,0.5s0.2,0.5,0.5,0.5h0.1c0.3,0,0.5-0.2,0.5-0.5S127.8,0,127.5,0L127.5,0z M125.4,0L125.4,0
				c-0.3,0-0.6,0.2-0.6,0.5s0.2,0.5,0.5,0.5h0.1c0.3,0,0.5-0.2,0.5-0.5S125.7,0,125.4,0L125.4,0z M123.4,0L123.4,0
				c-0.3,0-0.6,0.2-0.6,0.5s0.2,0.5,0.5,0.5h0.1c0.3,0,0.5-0.2,0.5-0.5S123.7,0,123.4,0L123.4,0z M121.3,0L121.3,0
				c-0.3,0-0.6,0.2-0.6,0.5S121,1,121.3,1h0.1c0.3,0,0.5-0.2,0.5-0.5S121.6,0,121.3,0L121.3,0z M119.3,0L119.3,0
				c-0.3,0-0.6,0.2-0.6,0.5s0.2,0.5,0.5,0.5h0.1c0.3,0,0.5-0.2,0.5-0.5S119.5,0,119.3,0L119.3,0z M117.2,0L117.2,0
				c-0.3,0-0.6,0.2-0.6,0.5s0.2,0.5,0.5,0.5h0.1c0.3,0,0.5-0.2,0.5-0.5S117.5,0,117.2,0L117.2,0z M115.2,0L115.2,0
				c-0.3,0-0.6,0.2-0.6,0.5s0.2,0.5,0.5,0.5h0.1c0.3,0,0.5-0.2,0.5-0.5S115.4,0,115.2,0L115.2,0z M113.1,0L113.1,0
				c-0.3,0-0.6,0.2-0.6,0.5s0.2,0.5,0.5,0.5h0.1c0.3,0,0.5-0.2,0.5-0.5S113.4,0,113.1,0L113.1,0z M111.1,0L111.1,0
				c-0.3,0-0.6,0.2-0.6,0.5S110.7,1,111,1h0.1c0.3,0,0.5-0.2,0.5-0.5S111.3,0,111.1,0L111.1,0z M109,0L109,0c-0.3,0-0.6,0.2-0.6,0.5
				s0.2,0.5,0.5,0.5h0.1c0.3,0,0.5-0.2,0.5-0.5S109.3,0,109,0L109,0z M106.9,0L106.9,0c-0.3,0-0.6,0.2-0.6,0.5s0.2,0.5,0.5,0.5h0.1
				c0.3,0,0.5-0.2,0.5-0.5S107.2,0,106.9,0L106.9,0z M104.9,0L104.9,0c-0.3,0-0.6,0.2-0.6,0.5s0.2,0.5,0.5,0.5h0.1
				c0.3,0,0.5-0.2,0.5-0.5S105.2,0,104.9,0L104.9,0z M102.8,0L102.8,0c-0.3,0-0.6,0.2-0.6,0.5s0.2,0.5,0.5,0.5h0.1
				c0.3,0,0.5-0.2,0.5-0.5S103.1,0,102.8,0L102.8,0z M100.8,0L100.8,0c-0.3,0-0.6,0.2-0.6,0.5s0.2,0.5,0.5,0.5h0.1
				c0.3,0,0.5-0.2,0.5-0.5S101.1,0,100.8,0L100.8,0z M98.7,0L98.7,0c-0.3,0-0.6,0.2-0.6,0.5S98.4,1,98.7,1h0.1
				c0.3,0,0.5-0.2,0.5-0.5S99,0,98.7,0L98.7,0z M96.7,0L96.7,0c-0.3,0-0.6,0.2-0.6,0.5S96.3,1,96.6,1h0.1c0.3,0,0.5-0.2,0.5-0.5
				S96.9,0,96.7,0L96.7,0z M94.6,0L94.6,0c-0.3,0-0.6,0.2-0.6,0.5S94.3,1,94.6,1h0.1c0.3,0,0.5-0.2,0.5-0.5S94.9,0,94.6,0L94.6,0z
				 M92.6,0L92.6,0C92.2,0,92,0.2,92,0.5S92.2,1,92.5,1h0.1c0.3,0,0.5-0.2,0.5-0.5S92.8,0,92.6,0L92.6,0z M90.5,0L90.5,0
				c-0.3,0-0.6,0.2-0.6,0.5S90.2,1,90.4,1h0.1C90.8,1,91,0.8,91,0.5S90.8,0,90.5,0L90.5,0z M88.4,0L88.4,0c-0.3,0-0.6,0.2-0.6,0.5
				S88.1,1,88.4,1h0.1c0.3,0,0.5-0.2,0.5-0.5S88.7,0,88.4,0L88.4,0z M86.4,0L86.4,0c-0.3,0-0.6,0.2-0.6,0.5S86.1,1,86.3,1h0.1
				c0.3,0,0.5-0.2,0.5-0.5S86.7,0,86.4,0L86.4,0z M84.3,0L84.3,0c-0.3,0-0.6,0.2-0.6,0.5S84,1,84.3,1h0.1c0.3,0,0.5-0.2,0.5-0.5
				S84.6,0,84.3,0L84.3,0z M82.3,0L82.3,0c-0.3,0-0.6,0.2-0.6,0.5S82,1,82.2,1h0.1c0.3,0,0.5-0.2,0.5-0.5S82.6,0,82.3,0L82.3,0z
				 M80.2,0L80.2,0c-0.3,0-0.6,0.2-0.6,0.5S79.9,1,80.2,1h0.1c0.3,0,0.5-0.2,0.5-0.5S80.5,0,80.2,0L80.2,0z M78.2,0L78.2,0
				c-0.3,0-0.6,0.2-0.6,0.5S77.8,1,78.1,1h0.1c0.3,0,0.5-0.2,0.5-0.5S78.4,0,78.2,0L78.2,0z M76.1,0L76.1,0c-0.3,0-0.6,0.2-0.6,0.5
				S75.8,1,76.1,1h0.1c0.3,0,0.5-0.2,0.5-0.5S76.4,0,76.1,0L76.1,0z M74.1,0L74.1,0c-0.3,0-0.6,0.2-0.6,0.5S73.7,1,74,1h0.1
				c0.3,0,0.5-0.2,0.5-0.5S74.3,0,74.1,0L74.1,0z M72,0L72,0c-0.3,0-0.6,0.2-0.6,0.5S71.7,1,72,1H72c0.3,0,0.5-0.2,0.5-0.5
				S72.3,0,72,0L72,0z M70,0L70,0c-0.3,0-0.6,0.2-0.6,0.5S69.6,1,69.9,1H70c0.3,0,0.5-0.2,0.5-0.5S70.2,0,70,0L70,0z M67.9,0L67.9,0
				c-0.3,0-0.6,0.2-0.6,0.5S67.6,1,67.8,1h0.1c0.3,0,0.5-0.2,0.5-0.5S68.2,0,67.9,0L67.9,0z M65.8,0L65.8,0c-0.3,0-0.6,0.2-0.6,0.5
				S65.5,1,65.8,1h0.1c0.3,0,0.5-0.2,0.5-0.5S66.1,0,65.8,0L65.8,0z M63.8,0L63.8,0c-0.3,0-0.6,0.2-0.6,0.5S63.5,1,63.7,1h0.1
				c0.3,0,0.5-0.2,0.5-0.5S64.1,0,63.8,0L63.8,0z M61.7,0L61.7,0c-0.3,0-0.6,0.2-0.6,0.5S61.4,1,61.7,1h0.1c0.3,0,0.5-0.2,0.5-0.5
				S62,0,61.7,0L61.7,0z M59.7,0L59.7,0c-0.3,0-0.6,0.2-0.6,0.5S59.3,1,59.6,1h0.1c0.3,0,0.5-0.2,0.5-0.5S60,0,59.7,0L59.7,0z
				 M57.6,0L57.6,0c-0.3,0-0.6,0.2-0.6,0.5S57.3,1,57.6,1h0.1c0.3,0,0.5-0.2,0.5-0.5S57.9,0,57.6,0L57.6,0z M55.6,0L55.6,0
				C55.2,0,55,0.2,55,0.5S55.2,1,55.5,1h0.1c0.3,0,0.5-0.2,0.5-0.5S55.8,0,55.6,0L55.6,0z M53.5,0L53.5,0C53.2,0,53,0.2,53,0.5
				S53.2,1,53.5,1h0.1C53.8,1,54,0.8,54,0.5S53.8,0,53.5,0L53.5,0z M51.5,0L51.5,0c-0.3,0-0.6,0.2-0.6,0.5S51.1,1,51.4,1h0.1
				C51.7,1,52,0.8,52,0.5S51.7,0,51.5,0L51.5,0z M49.4,0L49.4,0c-0.3,0-0.6,0.2-0.6,0.5S49.1,1,49.3,1h0.1c0.3,0,0.5-0.2,0.5-0.5
				S49.7,0,49.4,0L49.4,0z M47.3,0L47.3,0c-0.3,0-0.6,0.2-0.6,0.5S47,1,47.3,1h0.1c0.3,0,0.5-0.2,0.5-0.5S47.6,0,47.3,0L47.3,0z
				 M45.3,0L45.3,0c-0.3,0-0.6,0.2-0.6,0.5S45,1,45.2,1h0.1c0.3,0,0.5-0.2,0.5-0.5S45.6,0,45.3,0L45.3,0z M43.2,0L43.2,0
				c-0.3,0-0.6,0.2-0.6,0.5S42.9,1,43.2,1h0.1c0.3,0,0.5-0.2,0.5-0.5S43.5,0,43.2,0L43.2,0z M41.2,0L41.2,0c-0.3,0-0.6,0.2-0.6,0.5
				S40.9,1,41.1,1h0.1c0.3,0,0.5-0.2,0.5-0.5S41.5,0,41.2,0L41.2,0z M39.1,0L39.1,0c-0.3,0-0.6,0.2-0.6,0.5S38.8,1,39.1,1h0.1
				c0.3,0,0.5-0.2,0.5-0.5S39.4,0,39.1,0L39.1,0z M37.1,0L37.1,0c-0.3,0-0.6,0.2-0.6,0.5S36.7,1,37,1h0.1c0.3,0,0.5-0.2,0.5-0.5
				S37.3,0,37.1,0L37.1,0z M35,0L35,0c-0.3,0-0.6,0.2-0.6,0.5S34.7,1,35,1H35c0.3,0,0.5-0.2,0.5-0.5S35.3,0,35,0L35,0z M33,0L33,0
				c-0.3,0-0.6,0.2-0.6,0.5S32.6,1,32.9,1H33c0.3,0,0.5-0.2,0.5-0.5S33.2,0,33,0L33,0z M30.9,0L30.9,0c-0.3,0-0.6,0.2-0.6,0.5
				S30.6,1,30.9,1h0.1c0.3,0,0.5-0.2,0.5-0.5S31.2,0,30.9,0L30.9,0z M28.9,0L28.9,0c-0.3,0-0.6,0.2-0.6,0.5S28.5,1,28.8,1h0.1
				c0.3,0,0.5-0.2,0.5-0.5S29.1,0,28.9,0L28.9,0z M26.8,0L26.8,0c-0.3,0-0.6,0.2-0.6,0.5S26.5,1,26.7,1h0.1c0.3,0,0.5-0.2,0.5-0.5
				S27.1,0,26.8,0L26.8,0z M24.7,0L24.7,0c-0.3,0-0.6,0.2-0.6,0.5S24.4,1,24.7,1h0.1c0.3,0,0.5-0.2,0.5-0.5S25,0,24.7,0L24.7,0z
				 M22.7,0L22.7,0c-0.3,0-0.6,0.2-0.6,0.5S22.4,1,22.6,1h0.1c0.3,0,0.5-0.2,0.5-0.5S23,0,22.7,0L22.7,0z M20.6,0L20.6,0
				c-0.3,0-0.6,0.2-0.6,0.5S20.3,1,20.6,1h0.1c0.3,0,0.5-0.2,0.5-0.5S20.9,0,20.6,0L20.6,0z M18.6,0L18.6,0C18.2,0,18,0.2,18,0.5
				S18.2,1,18.5,1h0.1c0.3,0,0.5-0.2,0.5-0.5S18.9,0,18.6,0L18.6,0z M16.5,0L16.5,0C16.2,0,16,0.2,16,0.5S16.2,1,16.5,1h0.1
				C16.8,1,17,0.8,17,0.5S16.8,0,16.5,0L16.5,0z M14.5,0L14.5,0c-0.3,0-0.6,0.2-0.6,0.5S14.1,1,14.4,1h0.1C14.7,1,15,0.8,15,0.5
				S14.7,0,14.5,0L14.5,0z M12.4,0L12.4,0c-0.3,0-0.6,0.2-0.6,0.5S12.1,1,12.4,1h0.1c0.3,0,0.5-0.2,0.5-0.5S12.7,0,12.4,0L12.4,0z
				 M10.4,0L10.4,0C10,0,9.8,0.2,9.8,0.5S10,1,10.3,1h0.1c0.3,0,0.5-0.2,0.5-0.5S10.6,0,10.4,0L10.4,0z M8.3,0L8.3,0
				C8,0,7.7,0.2,7.7,0.5S8,1,8.2,1h0.1c0.3,0,0.5-0.2,0.5-0.5S8.6,0,8.3,0L8.3,0z M6.2,0L6.2,0C5.9,0,5.7,0.2,5.7,0.5S5.9,1,6.2,1
				h0.1c0.3,0,0.5-0.2,0.5-0.5S6.5,0,6.2,0L6.2,0z M4.2,0L4.2,0C3.9,0,3.6,0.2,3.6,0.5S3.9,1,4.1,1h0.1c0.3,0,0.5-0.2,0.5-0.5
				S4.5,0,4.2,0L4.2,0z M2.1,0L2.1,0C1.8,0,1.6,0.2,1.6,0.5S1.8,1,2.1,1h0.1c0.3,0,0.5-0.2,0.5-0.5S2.4,0,2.1,0L2.1,0z M0.1,0L0.1,0
				C0,0,0,0,0.1,0L0,1c0,0,0,0,0,0h0.1c0.3,0,0.5-0.2,0.5-0.5S0.4,0,0.1,0L0.1,0z M0.5,1.5C0.2,1.5,0,1.7,0,2V2
				c0,0.3,0.2,0.5,0.5,0.5C0.8,2.5,1,2.3,1,2V2C1,1.7,0.8,1.5,0.5,1.5L0.5,1.5z M0.5,3.5C0.2,3.5,0,3.8,0,4v0.1
				c0,0.3,0.2,0.5,0.5,0.5C0.8,4.6,1,4.4,1,4.1V4C1,3.8,0.8,3.5,0.5,3.5L0.5,3.5z M0.5,5.6C0.2,5.6,0,5.8,0,6.1v0.1
				c0,0.3,0.2,0.5,0.5,0.5C0.8,6.6,1,6.4,1,6.1V6.1C1,5.8,0.8,5.6,0.5,5.6L0.5,5.6z M0.5,7.6C0.2,7.6,0,7.9,0,8.1v0.1
				c0,0.3,0.2,0.5,0.5,0.5C0.8,8.7,1,8.5,1,8.2V8.1C1,7.9,0.8,7.6,0.5,7.6L0.5,7.6z M0.5,9.7C0.2,9.7,0,9.9,0,10.2v0.1
				c0,0.3,0.2,0.5,0.5,0.5c0.3,0,0.5-0.2,0.5-0.5v-0.1C1,9.9,0.8,9.7,0.5,9.7L0.5,9.7z M0.5,11.7C0.2,11.7,0,12,0,12.2v0.1
				c0,0.3,0.2,0.5,0.5,0.5c0.3,0,0.5-0.2,0.5-0.5v-0.1C1,12,0.8,11.7,0.5,11.7L0.5,11.7z M0.5,13.8C0.2,13.8,0,14,0,14.3v0.1
				c0,0.3,0.2,0.5,0.5,0.5c0.3,0,0.5-0.2,0.5-0.5v-0.1C1,14,0.8,13.8,0.5,13.8L0.5,13.8z M0.5,15.9c-0.3,0-0.5,0.2-0.5,0.5v0.1
				c0,0.3,0.2,0.5,0.5,0.5c0.3,0,0.5-0.2,0.5-0.5v-0.1C1,16.1,0.8,15.9,0.5,15.9L0.5,15.9z M0.5,17.9c-0.3,0-0.5,0.2-0.5,0.5v0.1
				C0,18.7,0.2,19,0.5,19C0.8,19,1,18.7,1,18.5v-0.1C1,18.1,0.8,17.9,0.5,17.9L0.5,17.9z M0.5,20C0.2,20,0,20.2,0,20.5v0.1
				C0,20.8,0.2,21,0.5,21C0.8,21,1,20.8,1,20.5v-0.1C1,20.2,0.8,20,0.5,20L0.5,20z M0.5,22C0.2,22,0,22.2,0,22.5v0.1
				c0,0.2,0.1,0.4,0.4,0.5c-0.2,0.1-0.3,0.3-0.3,0.4c0,0.3,0.2,0.5,0.5,0.5h0.1c0.3,0,0.5-0.2,0.5-0.5c0-0.2-0.2-0.4-0.4-0.5
				C0.9,22.9,1,22.8,1,22.6v-0.1C1,22.2,0.8,22,0.5,22L0.5,22z M2.7,23L2.7,23c-0.3,0-0.6,0.2-0.6,0.5S2.4,24,2.6,24h0.1
				c0.3,0,0.5-0.2,0.5-0.5S3,23,2.7,23L2.7,23z M4.7,23L4.7,23c-0.3,0-0.6,0.2-0.6,0.5S4.4,24,4.7,24h0.1c0.3,0,0.5-0.2,0.5-0.5
				S5,23,4.7,23L4.7,23z M6.8,23L6.8,23c-0.3,0-0.6,0.2-0.6,0.5S6.5,24,6.7,24h0.1c0.3,0,0.5-0.2,0.5-0.5S7.1,23,6.8,23L6.8,23z
				 M8.9,23L8.9,23c-0.3,0-0.6,0.2-0.6,0.5S8.5,24,8.8,24h0.1c0.3,0,0.5-0.2,0.5-0.5S9.1,23,8.9,23L8.9,23z M10.9,23L10.9,23
				c-0.3,0-0.6,0.2-0.6,0.5s0.2,0.5,0.5,0.5h0.1c0.3,0,0.5-0.2,0.5-0.5S11.2,23,10.9,23L10.9,23z M13,23L13,23
				c-0.3,0-0.6,0.2-0.6,0.5s0.2,0.5,0.5,0.5H13c0.3,0,0.5-0.2,0.5-0.5S13.2,23,13,23L13,23z M15,23L15,23c-0.3,0-0.6,0.2-0.6,0.5
				S14.7,24,15,24H15c0.3,0,0.5-0.2,0.5-0.5S15.3,23,15,23L15,23z M17.1,23L17.1,23c-0.3,0-0.6,0.2-0.6,0.5S16.7,24,17,24h0.1
				c0.3,0,0.5-0.2,0.5-0.5S17.3,23,17.1,23L17.1,23z M19.1,23L19.1,23c-0.3,0-0.6,0.2-0.6,0.5s0.2,0.5,0.5,0.5h0.1
				c0.3,0,0.5-0.2,0.5-0.5S19.4,23,19.1,23L19.1,23z M21.2,23L21.2,23c-0.3,0-0.6,0.2-0.6,0.5s0.2,0.5,0.5,0.5h0.1
				c0.3,0,0.5-0.2,0.5-0.5S21.5,23,21.2,23L21.2,23z M23.2,23L23.2,23c-0.3,0-0.6,0.2-0.6,0.5s0.2,0.5,0.5,0.5h0.1
				c0.3,0,0.5-0.2,0.5-0.5S23.5,23,23.2,23L23.2,23z M25.3,23L25.3,23c-0.3,0-0.6,0.2-0.6,0.5S25,24,25.2,24h0.1
				c0.3,0,0.5-0.2,0.5-0.5S25.6,23,25.3,23L25.3,23z M27.3,23L27.3,23c-0.3,0-0.6,0.2-0.6,0.5S27,24,27.3,24h0.1
				c0.3,0,0.5-0.2,0.5-0.5S27.6,23,27.3,23L27.3,23z M29.4,23L29.4,23c-0.3,0-0.6,0.2-0.6,0.5s0.2,0.5,0.5,0.5h0.1
				c0.3,0,0.5-0.2,0.5-0.5S29.7,23,29.4,23L29.4,23z M31.5,23L31.5,23c-0.3,0-0.6,0.2-0.6,0.5s0.2,0.5,0.5,0.5h0.1
				c0.3,0,0.5-0.2,0.5-0.5S31.7,23,31.5,23L31.5,23z M33.5,23L33.5,23c-0.3,0-0.6,0.2-0.6,0.5s0.2,0.5,0.5,0.5h0.1
				c0.3,0,0.5-0.2,0.5-0.5S33.8,23,33.5,23L33.5,23z M35.6,23L35.6,23c-0.3,0-0.6,0.2-0.6,0.5s0.2,0.5,0.5,0.5h0.1
				c0.3,0,0.5-0.2,0.5-0.5S35.8,23,35.6,23L35.6,23z M37.6,23L37.6,23c-0.3,0-0.6,0.2-0.6,0.5s0.2,0.5,0.5,0.5h0.1
				c0.3,0,0.5-0.2,0.5-0.5S37.9,23,37.6,23L37.6,23z M39.7,23L39.7,23c-0.3,0-0.6,0.2-0.6,0.5s0.2,0.5,0.5,0.5h0.1
				c0.3,0,0.5-0.2,0.5-0.5S40,23,39.7,23L39.7,23z M41.7,23L41.7,23c-0.3,0-0.6,0.2-0.6,0.5s0.2,0.5,0.5,0.5h0.1
				c0.3,0,0.5-0.2,0.5-0.5S42,23,41.7,23L41.7,23z M43.8,23L43.8,23c-0.3,0-0.6,0.2-0.6,0.5s0.2,0.5,0.5,0.5h0.1
				c0.3,0,0.5-0.2,0.5-0.5S44.1,23,43.8,23L43.8,23z M45.8,23L45.8,23c-0.3,0-0.6,0.2-0.6,0.5s0.2,0.5,0.5,0.5h0.1
				c0.3,0,0.5-0.2,0.5-0.5S46.1,23,45.8,23L45.8,23z M47.9,23L47.9,23c-0.3,0-0.6,0.2-0.6,0.5s0.2,0.5,0.5,0.5h0.1
				c0.3,0,0.5-0.2,0.5-0.5S48.2,23,47.9,23L47.9,23z M50,23L50,23c-0.3,0-0.6,0.2-0.6,0.5s0.2,0.5,0.5,0.5H50c0.3,0,0.5-0.2,0.5-0.5
				S50.2,23,50,23L50,23z M52,23L52,23c-0.3,0-0.6,0.2-0.6,0.5S51.7,24,52,24H52c0.3,0,0.5-0.2,0.5-0.5S52.3,23,52,23L52,23z
				 M54.1,23L54.1,23c-0.3,0-0.6,0.2-0.6,0.5S53.7,24,54,24h0.1c0.3,0,0.5-0.2,0.5-0.5S54.3,23,54.1,23L54.1,23z M56.1,23L56.1,23
				c-0.3,0-0.6,0.2-0.6,0.5s0.2,0.5,0.5,0.5h0.1c0.3,0,0.5-0.2,0.5-0.5S56.4,23,56.1,23L56.1,23z M58.2,23L58.2,23
				c-0.3,0-0.6,0.2-0.6,0.5s0.2,0.5,0.5,0.5h0.1c0.3,0,0.5-0.2,0.5-0.5S58.4,23,58.2,23L58.2,23z M60.2,23L60.2,23
				c-0.3,0-0.6,0.2-0.6,0.5s0.2,0.5,0.5,0.5h0.1c0.3,0,0.5-0.2,0.5-0.5S60.5,23,60.2,23L60.2,23z M62.3,23L62.3,23
				c-0.3,0-0.6,0.2-0.6,0.5S62,24,62.2,24h0.1c0.3,0,0.5-0.2,0.5-0.5S62.6,23,62.3,23L62.3,23z M64.3,23L64.3,23
				c-0.3,0-0.6,0.2-0.6,0.5S64,24,64.3,24h0.1c0.3,0,0.5-0.2,0.5-0.5S64.6,23,64.3,23L64.3,23z M66.4,23L66.4,23
				c-0.3,0-0.6,0.2-0.6,0.5s0.2,0.5,0.5,0.5h0.1c0.3,0,0.5-0.2,0.5-0.5S66.7,23,66.4,23L66.4,23z M68.4,23L68.4,23
				c-0.3,0-0.6,0.2-0.6,0.5s0.2,0.5,0.5,0.5h0.1c0.3,0,0.5-0.2,0.5-0.5S68.7,23,68.4,23L68.4,23z M70.5,23L70.5,23
				c-0.3,0-0.6,0.2-0.6,0.5s0.2,0.5,0.5,0.5h0.1c0.3,0,0.5-0.2,0.5-0.5S70.8,23,70.5,23L70.5,23z M72.6,23L72.6,23
				c-0.3,0-0.6,0.2-0.6,0.5s0.2,0.5,0.5,0.5h0.1c0.3,0,0.5-0.2,0.5-0.5S72.8,23,72.6,23L72.6,23z M74.6,23L74.6,23
				c-0.3,0-0.6,0.2-0.6,0.5s0.2,0.5,0.5,0.5h0.1c0.3,0,0.5-0.2,0.5-0.5S74.9,23,74.6,23L74.6,23z M76.7,23L76.7,23
				c-0.3,0-0.6,0.2-0.6,0.5s0.2,0.5,0.5,0.5h0.1c0.3,0,0.5-0.2,0.5-0.5S76.9,23,76.7,23L76.7,23z M78.7,23L78.7,23
				c-0.3,0-0.6,0.2-0.6,0.5s0.2,0.5,0.5,0.5h0.1c0.3,0,0.5-0.2,0.5-0.5S79,23,78.7,23L78.7,23z M80.8,23L80.8,23
				c-0.3,0-0.6,0.2-0.6,0.5s0.2,0.5,0.5,0.5h0.1c0.3,0,0.5-0.2,0.5-0.5S81.1,23,80.8,23L80.8,23z M82.8,23L82.8,23
				c-0.3,0-0.6,0.2-0.6,0.5s0.2,0.5,0.5,0.5h0.1c0.3,0,0.5-0.2,0.5-0.5S83.1,23,82.8,23L82.8,23z M84.9,23L84.9,23
				c-0.3,0-0.6,0.2-0.6,0.5s0.2,0.5,0.5,0.5h0.1c0.3,0,0.5-0.2,0.5-0.5S85.2,23,84.9,23L84.9,23z M86.9,23L86.9,23
				c-0.3,0-0.6,0.2-0.6,0.5s0.2,0.5,0.5,0.5h0.1c0.3,0,0.5-0.2,0.5-0.5S87.2,23,86.9,23L86.9,23z M89,23L89,23
				c-0.3,0-0.6,0.2-0.6,0.5s0.2,0.5,0.5,0.5H89c0.3,0,0.5-0.2,0.5-0.5S89.3,23,89,23L89,23z M91.1,23L91.1,23
				c-0.3,0-0.6,0.2-0.6,0.5S90.7,24,91,24h0.1c0.3,0,0.5-0.2,0.5-0.5S91.3,23,91.1,23L91.1,23z M93.1,23L93.1,23
				c-0.3,0-0.6,0.2-0.6,0.5s0.2,0.5,0.5,0.5h0.1c0.3,0,0.5-0.2,0.5-0.5S93.4,23,93.1,23L93.1,23z M95.2,23L95.2,23
				c-0.3,0-0.6,0.2-0.6,0.5s0.2,0.5,0.5,0.5h0.1c0.3,0,0.5-0.2,0.5-0.5S95.4,23,95.2,23L95.2,23z M97.2,23L97.2,23
				c-0.3,0-0.6,0.2-0.6,0.5s0.2,0.5,0.5,0.5h0.1c0.3,0,0.5-0.2,0.5-0.5S97.5,23,97.2,23L97.2,23z M99.3,23L99.3,23
				c-0.3,0-0.6,0.2-0.6,0.5s0.2,0.5,0.5,0.5h0.1c0.3,0,0.5-0.2,0.5-0.5S99.5,23,99.3,23L99.3,23z M101.3,23L101.3,23
				c-0.3,0-0.6,0.2-0.6,0.5s0.2,0.5,0.5,0.5h0.1c0.3,0,0.5-0.2,0.5-0.5S101.6,23,101.3,23L101.3,23z M103.4,23L103.4,23
				c-0.3,0-0.6,0.2-0.6,0.5s0.2,0.5,0.5,0.5h0.1c0.3,0,0.5-0.2,0.5-0.5S103.7,23,103.4,23L103.4,23z M105.4,23L105.4,23
				c-0.3,0-0.6,0.2-0.6,0.5s0.2,0.5,0.5,0.5h0.1c0.3,0,0.5-0.2,0.5-0.5S105.7,23,105.4,23L105.4,23z M107.5,23L107.5,23
				c-0.3,0-0.6,0.2-0.6,0.5s0.2,0.5,0.5,0.5h0.1c0.3,0,0.5-0.2,0.5-0.5S107.8,23,107.5,23L107.5,23z M109.5,23L109.5,23
				c-0.3,0-0.6,0.2-0.6,0.5s0.2,0.5,0.5,0.5h0.1c0.3,0,0.5-0.2,0.5-0.5S109.8,23,109.5,23L109.5,23z M111.6,23L111.6,23
				c-0.3,0-0.6,0.2-0.6,0.5s0.2,0.5,0.5,0.5h0.1c0.3,0,0.5-0.2,0.5-0.5S111.9,23,111.6,23L111.6,23z M113.7,23L113.7,23
				c-0.3,0-0.6,0.2-0.6,0.5s0.2,0.5,0.5,0.5h0.1c0.3,0,0.5-0.2,0.5-0.5S113.9,23,113.7,23L113.7,23z M115.7,23L115.7,23
				c-0.3,0-0.6,0.2-0.6,0.5s0.2,0.5,0.5,0.5h0.1c0.3,0,0.5-0.2,0.5-0.5S116,23,115.7,23L115.7,23z M117.8,23L117.8,23
				c-0.3,0-0.6,0.2-0.6,0.5s0.2,0.5,0.5,0.5h0.1c0.3,0,0.5-0.2,0.5-0.5S118,23,117.8,23L117.8,23z M119.8,23L119.8,23
				c-0.3,0-0.6,0.2-0.6,0.5s0.2,0.5,0.5,0.5h0.1c0.3,0,0.5-0.2,0.5-0.5S120.1,23,119.8,23L119.8,23z M121.9,23L121.9,23
				c-0.3,0-0.6,0.2-0.6,0.5s0.2,0.5,0.5,0.5h0.1c0.3,0,0.5-0.2,0.5-0.5S122.2,23,121.9,23L121.9,23z M123.9,23L123.9,23
				c-0.3,0-0.6,0.2-0.6,0.5s0.2,0.5,0.5,0.5h0.1c0.3,0,0.5-0.2,0.5-0.5S124.2,23,123.9,23L123.9,23z M126,23L126,23
				c-0.3,0-0.6,0.2-0.6,0.5s0.2,0.5,0.5,0.5h0.1c0.3,0,0.5-0.2,0.5-0.5S126.3,23,126,23L126,23z M128,23L128,23
				c-0.3,0-0.6,0.2-0.6,0.5s0.2,0.5,0.5,0.5h0.1c0.3,0,0.5-0.2,0.5-0.5S128.3,23,128,23L128,23z M130.1,23L130.1,23
				c-0.3,0-0.6,0.2-0.6,0.5s0.2,0.5,0.5,0.5h0.1c0.3,0,0.5-0.2,0.5-0.5S130.4,23,130.1,23L130.1,23z M132.2,23L132.2,23
				c-0.3,0-0.6,0.2-0.6,0.5s0.2,0.5,0.5,0.5h0.1c0.3,0,0.5-0.2,0.5-0.5S132.4,23,132.2,23L132.2,23z M134.2,23L134.2,23
				c-0.3,0-0.6,0.2-0.6,0.5s0.2,0.5,0.5,0.5h0.1c0.3,0,0.5-0.2,0.5-0.5S134.5,23,134.2,23L134.2,23z M136.3,23L136.3,23
				c-0.3,0-0.6,0.2-0.6,0.5s0.2,0.5,0.5,0.5h0.1c0.3,0,0.5-0.2,0.5-0.5S136.5,23,136.3,23L136.3,23z M138.3,23L138.3,23
				c-0.3,0-0.6,0.2-0.6,0.5s0.2,0.5,0.5,0.5h0.1c0.3,0,0.5-0.2,0.5-0.5S138.6,23,138.3,23L138.3,23z M140.4,23L140.4,23
				c-0.3,0-0.6,0.2-0.6,0.5s0.2,0.5,0.5,0.5h0.1c0.3,0,0.5-0.2,0.5-0.5S140.6,23,140.4,23L140.4,23z M142.4,23L142.4,23
				c-0.3,0-0.6,0.2-0.6,0.5s0.2,0.5,0.5,0.5h0.1c0.3,0,0.5-0.2,0.5-0.5S142.7,23,142.4,23L142.4,23z M144.5,23L144.5,23
				c-0.3,0-0.6,0.2-0.6,0.5s0.2,0.5,0.5,0.5h0.1c0.3,0,0.5-0.2,0.5-0.5S144.8,23,144.5,23L144.5,23z M146.5,23L146.5,23
				c-0.3,0-0.6,0.2-0.6,0.5s0.2,0.5,0.5,0.5h0.1c0.3,0,0.5-0.2,0.5-0.5S146.8,23,146.5,23L146.5,23z M148.6,23L148.6,23
				c-0.3,0-0.6,0.2-0.6,0.5s0.2,0.5,0.5,0.5h0.1c0.3,0,0.5-0.2,0.5-0.5S148.9,23,148.6,23L148.6,23z M150.6,23L150.6,23
				c-0.3,0-0.6,0.2-0.6,0.5s0.2,0.5,0.5,0.5h0.1c0.3,0,0.5-0.2,0.5-0.5S150.9,23,150.6,23L150.6,23z M152.7,23L152.7,23
				c-0.3,0-0.6,0.2-0.6,0.5s0.2,0.5,0.5,0.5h0.1c0.3,0,0.5-0.2,0.5-0.5S153,23,152.7,23L152.7,23z M154.8,23L154.8,23
				c-0.3,0-0.6,0.2-0.6,0.5s0.2,0.5,0.5,0.5h0.1c0.3,0,0.5-0.2,0.5-0.5S155,23,154.8,23L154.8,23z M156.8,23L156.8,23
				c-0.3,0-0.6,0.2-0.6,0.5s0.2,0.5,0.5,0.5h0.1c0.3,0,0.5-0.2,0.5-0.5S157.1,23,156.8,23L156.8,23z M158.9,23L158.9,23
				c-0.3,0-0.6,0.2-0.6,0.5s0.2,0.5,0.5,0.5h0.1c0.3,0,0.5-0.2,0.5-0.5S159.1,23,158.9,23L158.9,23z M160.9,23L160.9,23
				c-0.3,0-0.6,0.2-0.6,0.5s0.2,0.5,0.5,0.5h0.1c0.3,0,0.5-0.2,0.5-0.5S161.2,23,160.9,23L160.9,23z M163,23L163,23
				c-0.3,0-0.6,0.2-0.6,0.5s0.2,0.5,0.5,0.5h0.1c0.3,0,0.5-0.2,0.5-0.5S163.3,23,163,23L163,23z M165,23L165,23
				c-0.3,0-0.6,0.2-0.6,0.5s0.2,0.5,0.5,0.5h0.1c0.3,0,0.5-0.2,0.5-0.5S165.3,23,165,23L165,23z M167.1,23L167.1,23
				c-0.3,0-0.6,0.2-0.6,0.5s0.2,0.5,0.5,0.5h0.1c0.3,0,0.5-0.2,0.5-0.5S167.4,23,167.1,23L167.1,23z M169.1,23L169.1,23
				c-0.3,0-0.6,0.2-0.6,0.5s0.2,0.5,0.5,0.5h0.1c0.3,0,0.5-0.2,0.5-0.5S169.4,23,169.1,23L169.1,23z M171.2,23L171.2,23
				c-0.3,0-0.6,0.2-0.6,0.5s0.2,0.5,0.5,0.5h0.1c0.3,0,0.5-0.2,0.5-0.5S171.5,23,171.2,23L171.2,23z M173.3,23L173.3,23
				c-0.3,0-0.6,0.2-0.6,0.5s0.2,0.5,0.5,0.5h0.1c0.3,0,0.5-0.2,0.5-0.5S173.5,23,173.3,23L173.3,23z M175.3,23L175.3,23
				c-0.3,0-0.6,0.2-0.6,0.5s0.2,0.5,0.5,0.5h0.1c0.3,0,0.5-0.2,0.5-0.5S175.6,23,175.3,23L175.3,23z M177.4,23L177.4,23
				c-0.3,0-0.6,0.2-0.6,0.5s0.2,0.5,0.5,0.5h0.1c0.3,0,0.5-0.2,0.5-0.5S177.6,23,177.4,23L177.4,23z M179.4,23L179.4,23
				c-0.3,0-0.6,0.2-0.6,0.5s0.2,0.5,0.5,0.5h0.1c0.3,0,0.5-0.2,0.5-0.5S179.7,23,179.4,23L179.4,23z M181.5,23L181.5,23
				c-0.3,0-0.6,0.2-0.6,0.5s0.2,0.5,0.5,0.5h0.1c0.3,0,0.5-0.2,0.5-0.5S181.7,23,181.5,23L181.5,23z M183.5,23L183.5,23
				c-0.3,0-0.6,0.2-0.6,0.5s0.2,0.5,0.5,0.5h0.1c0.3,0,0.5-0.2,0.5-0.5S183.8,23,183.5,23L183.5,23z M185.6,23L185.6,23
				c-0.3,0-0.6,0.2-0.6,0.5s0.2,0.5,0.5,0.5h0.1c0.3,0,0.5-0.2,0.5-0.5S185.9,23,185.6,23L185.6,23z M187.6,23L187.6,23
				c-0.3,0-0.6,0.2-0.6,0.5s0.2,0.5,0.5,0.5h0.1c0.3,0,0.5-0.2,0.5-0.5S187.9,23,187.6,23L187.6,23z M189.7,23L189.7,23
				c-0.3,0-0.6,0.2-0.6,0.5s0.2,0.5,0.5,0.5h0.1c0.3,0,0.5-0.2,0.5-0.5S190,23,189.7,23L189.7,23z M191.7,23L191.7,23
				c-0.3,0-0.6,0.2-0.6,0.5s0.2,0.5,0.5,0.5h0.1c0.3,0,0.5-0.2,0.5-0.5S192,23,191.7,23L191.7,23z M193.8,23L193.8,23
				c-0.3,0-0.6,0.2-0.6,0.5s0.2,0.5,0.5,0.5h0.1c0.3,0,0.5-0.2,0.5-0.5S194.1,23,193.8,23L193.8,23z M195.9,23L195.9,23
				c-0.3,0-0.6,0.2-0.6,0.5s0.2,0.5,0.5,0.5h0.1c0.3,0,0.5-0.2,0.5-0.5S196.1,23,195.9,23L195.9,23z M197.9,23L197.9,23
				c-0.3,0-0.6,0.2-0.6,0.5s0.2,0.5,0.5,0.5h0.1c0.3,0,0.5-0.2,0.5-0.5S198.2,23,197.9,23L197.9,23z M200,23L200,23
				c-0.3,0-0.6,0.2-0.6,0.5s0.2,0.5,0.5,0.5h0.1c0.3,0,0.5-0.2,0.5-0.5S200.2,23,200,23L200,23z M202,23L202,23
				c-0.3,0-0.6,0.2-0.6,0.5s0.2,0.5,0.5,0.5h0.1c0.3,0,0.5-0.2,0.5-0.5S202.3,23,202,23L202,23z M204.1,23L204.1,23
				c-0.3,0-0.6,0.2-0.6,0.5s0.2,0.5,0.5,0.5h0.1c0.3,0,0.5-0.2,0.5-0.5S204.4,23,204.1,23L204.1,23z M206.1,23L206.1,23
				c-0.3,0-0.6,0.2-0.6,0.5s0.2,0.5,0.5,0.5h0.1c0.3,0,0.5-0.2,0.5-0.5S206.4,23,206.1,23L206.1,23z M208.2,23L208.2,23
				c-0.3,0-0.6,0.2-0.6,0.5s0.2,0.5,0.5,0.5h0.1c0.3,0,0.5-0.2,0.5-0.5S208.5,23,208.2,23L208.2,23z M210.2,23L210.2,23
				c-0.3,0-0.6,0.2-0.6,0.5s0.2,0.5,0.5,0.5h0.1c0.3,0,0.5-0.2,0.5-0.5S210.5,23,210.2,23L210.2,23z M212.3,23L212.3,23
				c-0.3,0-0.6,0.2-0.6,0.5s0.2,0.5,0.5,0.5h0.1c0.3,0,0.5-0.2,0.5-0.5S212.6,23,212.3,23L212.3,23z M214.4,23L214.4,23
				c-0.3,0-0.6,0.2-0.6,0.5s0.2,0.5,0.5,0.5h0.1c0.3,0,0.5-0.2,0.5-0.5S214.6,23,214.4,23L214.4,23z M216.4,23L216.4,23
				c-0.3,0-0.6,0.2-0.6,0.5s0.2,0.5,0.5,0.5h0.1c0.3,0,0.5-0.2,0.5-0.5S216.7,23,216.4,23L216.4,23z M218.5,23L218.5,23
				c-0.3,0-0.6,0.2-0.6,0.5s0.2,0.5,0.5,0.5h0.1c0.3,0,0.5-0.2,0.5-0.5S218.7,23,218.5,23L218.5,23z M219.5,23
				c-0.3,0-0.5,0.2-0.5,0.5v0.1c0,0.2,0.2,0.5,0.4,0.5h0.2c0.2,0,0.4-0.2,0.4-0.5v-0.1C220,23.2,219.7,23,219.5,23L219.5,23z
				 M219.5,20.9c-0.3,0-0.5,0.2-0.5,0.5v0.1c0,0.3,0.2,0.5,0.5,0.5c0.3,0,0.5-0.2,0.5-0.5v-0.1C220,21.1,219.7,20.9,219.5,20.9
				L219.5,20.9z M219.5,18.8c-0.3,0-0.5,0.2-0.5,0.5v0.1c0,0.3,0.2,0.5,0.5,0.5c0.3,0,0.5-0.2,0.5-0.5v-0.1
				C220,19.1,219.7,18.8,219.5,18.8L219.5,18.8z M219.5,16.8c-0.3,0-0.5,0.2-0.5,0.5v0.1c0,0.3,0.2,0.5,0.5,0.5
				c0.3,0,0.5-0.2,0.5-0.5v-0.1C220,17,219.7,16.8,219.5,16.8L219.5,16.8z M219.5,14.7c-0.3,0-0.5,0.2-0.5,0.5v0.1
				c0,0.3,0.2,0.5,0.5,0.5c0.3,0,0.5-0.2,0.5-0.5v-0.1C220,15,219.7,14.7,219.5,14.7L219.5,14.7z M219.5,12.7
				c-0.3,0-0.5,0.2-0.5,0.5v0.1c0,0.3,0.2,0.5,0.5,0.5c0.3,0,0.5-0.2,0.5-0.5v-0.1C220,12.9,219.7,12.7,219.5,12.7L219.5,12.7z
				 M219.5,10.6c-0.3,0-0.5,0.2-0.5,0.5v0.1c0,0.3,0.2,0.5,0.5,0.5c0.3,0,0.5-0.2,0.5-0.5v-0.1C220,10.8,219.7,10.6,219.5,10.6
				L219.5,10.6z M219.5,8.6c-0.3,0-0.5,0.2-0.5,0.5v0.1c0,0.3,0.2,0.5,0.5,0.5c0.3,0,0.5-0.2,0.5-0.5V9.1
				C220,8.8,219.7,8.6,219.5,8.6L219.5,8.6z M219.5,6.5c-0.3,0-0.5,0.2-0.5,0.5v0.1c0,0.3,0.2,0.5,0.5,0.5c0.3,0,0.5-0.2,0.5-0.5V7
				C220,6.7,219.7,6.5,219.5,6.5L219.5,6.5z M219.5,4.5c-0.3,0-0.5,0.2-0.5,0.5V5c0,0.3,0.2,0.5,0.5,0.5c0.3,0,0.5-0.2,0.5-0.5V5
				C220,4.7,219.7,4.5,219.5,4.5L219.5,4.5z M219.5,2.4c-0.3,0-0.5,0.2-0.5,0.5V3c0,0.3,0.2,0.5,0.5,0.5c0.3,0,0.5-0.2,0.5-0.5V2.9
				C220,2.6,219.7,2.4,219.5,2.4L219.5,2.4z"/>
		</g>
	</g>
	<text id="XMLID_3543_" transform="matrix(1 0 0 1 76.8041 16.4858)" class="st1 st2 st3">Show more</text>
</g>
</svg>
